<mxfile host="65bd71144e">
    <diagram id="qY3j10bF5EF_q_S8w3jg" name="ページ1">
        <mxGraphModel dx="1014" dy="460" grid="1" gridSize="10" guides="1" tooltips="1" connect="1" arrows="1" fold="1" page="1" pageScale="1" pageWidth="827" pageHeight="1169" math="0" shadow="0">
            <root>
                <mxCell id="0"/>
                <mxCell id="1" parent="0"/>
                <mxCell id="40" value="&lt;span style=&quot;text-align: center;&quot;&gt;&lt;font style=&quot;color: rgb(0, 0, 255);&quot;&gt;&lt;span style=&quot;white-space: pre;&quot;&gt;&#x9;&lt;/span&gt;SooundCloudに保存&lt;/font&gt;&lt;/span&gt;" style="rounded=1;whiteSpace=wrap;html=1;strokeColor=#0000FF;fillColor=none;align=left;verticalAlign=top;" parent="1" vertex="1">
                    <mxGeometry x="150" y="330" width="580" height="270" as="geometry"/>
                </mxCell>
                <mxCell id="49" value="&lt;font style=&quot;color: rgb(255, 0, 0);&quot;&gt;&lt;span style=&quot;white-space: pre;&quot;&gt;&#x9;&lt;/span&gt;DBに保存&lt;/font&gt;" style="rounded=1;whiteSpace=wrap;html=1;strokeColor=#FF0000;fillColor=none;align=left;verticalAlign=top;" vertex="1" parent="1">
                    <mxGeometry x="150" y="200" width="370" height="110" as="geometry"/>
                </mxCell>
                <mxCell id="48" value="&lt;font style=&quot;color: rgb(255, 0, 0);&quot;&gt;&lt;span style=&quot;white-space: pre;&quot;&gt;&#x9;&lt;/span&gt;DBに保存&lt;/font&gt;" style="rounded=1;whiteSpace=wrap;html=1;strokeColor=#FF0000;fillColor=none;align=left;verticalAlign=top;" vertex="1" parent="1">
                    <mxGeometry x="530" y="340" width="160" height="230" as="geometry"/>
                </mxCell>
                <mxCell id="2" value="ユーザー" style="rounded=0;whiteSpace=wrap;html=1;" parent="1" vertex="1">
                    <mxGeometry x="180" y="230" width="120" height="60" as="geometry"/>
                </mxCell>
                <mxCell id="3" value="セッション" style="rounded=0;whiteSpace=wrap;html=1;" parent="1" vertex="1">
                    <mxGeometry x="270" y="120" width="120" height="60" as="geometry"/>
                </mxCell>
                <mxCell id="4" value="アーティスト" style="rounded=0;whiteSpace=wrap;html=1;" parent="1" vertex="1">
                    <mxGeometry x="550" y="490" width="120" height="60" as="geometry"/>
                </mxCell>
                <mxCell id="5" value="トラック" style="rounded=0;whiteSpace=wrap;html=1;" parent="1" vertex="1">
                    <mxGeometry x="550" y="380" width="120" height="60" as="geometry"/>
                </mxCell>
                <mxCell id="6" value="レコメンド（ディグ）" style="rounded=0;whiteSpace=wrap;html=1;" parent="1" vertex="1">
                    <mxGeometry x="370" y="230" width="120" height="60" as="geometry"/>
                </mxCell>
                <mxCell id="7" value="フォロー" style="rounded=0;whiteSpace=wrap;html=1;" parent="1" vertex="1">
                    <mxGeometry x="180" y="490" width="120" height="60" as="geometry"/>
                </mxCell>
                <mxCell id="8" value="いいね&lt;div&gt;（アーティスト、&lt;/div&gt;&lt;div&gt;ユーザー）&lt;/div&gt;" style="rounded=0;whiteSpace=wrap;html=1;" parent="1" vertex="1">
                    <mxGeometry x="320" y="380" width="120" height="60" as="geometry"/>
                </mxCell>
                <mxCell id="9" value="" style="endArrow=none;html=1;rounded=0;" parent="1" source="2" target="3" edge="1">
                    <mxGeometry relative="1" as="geometry">
                        <mxPoint x="430" y="380" as="sourcePoint"/>
                        <mxPoint x="590" y="380" as="targetPoint"/>
                    </mxGeometry>
                </mxCell>
                <mxCell id="10" value="1" style="resizable=0;html=1;whiteSpace=wrap;align=left;verticalAlign=bottom;" parent="9" connectable="0" vertex="1">
                    <mxGeometry x="-1" relative="1" as="geometry">
                        <mxPoint x="-15" as="offset"/>
                    </mxGeometry>
                </mxCell>
                <mxCell id="11" value="N" style="resizable=0;html=1;whiteSpace=wrap;align=right;verticalAlign=bottom;" parent="9" connectable="0" vertex="1">
                    <mxGeometry x="1" relative="1" as="geometry"/>
                </mxCell>
                <mxCell id="12" value="" style="endArrow=none;html=1;rounded=0;" parent="1" source="2" target="7" edge="1">
                    <mxGeometry relative="1" as="geometry">
                        <mxPoint x="310" y="255" as="sourcePoint"/>
                        <mxPoint x="430" y="225" as="targetPoint"/>
                    </mxGeometry>
                </mxCell>
                <mxCell id="13" value="1" style="resizable=0;html=1;whiteSpace=wrap;align=left;verticalAlign=bottom;" parent="12" connectable="0" vertex="1">
                    <mxGeometry x="-1" relative="1" as="geometry"/>
                </mxCell>
                <mxCell id="14" value="*" style="resizable=0;html=1;whiteSpace=wrap;align=right;verticalAlign=bottom;" parent="12" connectable="0" vertex="1">
                    <mxGeometry x="1" relative="1" as="geometry">
                        <mxPoint x="14" as="offset"/>
                    </mxGeometry>
                </mxCell>
                <mxCell id="15" value="" style="endArrow=none;html=1;rounded=0;" parent="1" source="7" target="4" edge="1">
                    <mxGeometry relative="1" as="geometry">
                        <mxPoint x="260" y="255" as="sourcePoint"/>
                        <mxPoint x="380" y="225" as="targetPoint"/>
                    </mxGeometry>
                </mxCell>
                <mxCell id="16" value="1" style="resizable=0;html=1;whiteSpace=wrap;align=left;verticalAlign=bottom;" parent="15" connectable="0" vertex="1">
                    <mxGeometry x="-1" relative="1" as="geometry"/>
                </mxCell>
                <mxCell id="17" value="1" style="resizable=0;html=1;whiteSpace=wrap;align=right;verticalAlign=bottom;" parent="15" connectable="0" vertex="1">
                    <mxGeometry x="1" relative="1" as="geometry"/>
                </mxCell>
                <mxCell id="18" value="" style="endArrow=none;html=1;rounded=0;" parent="1" source="4" target="5" edge="1">
                    <mxGeometry relative="1" as="geometry">
                        <mxPoint x="260" y="295" as="sourcePoint"/>
                        <mxPoint x="310" y="315" as="targetPoint"/>
                    </mxGeometry>
                </mxCell>
                <mxCell id="19" value="1~N" style="resizable=0;html=1;whiteSpace=wrap;align=left;verticalAlign=bottom;" parent="18" connectable="0" vertex="1">
                    <mxGeometry x="-1" relative="1" as="geometry">
                        <mxPoint x="-18" as="offset"/>
                    </mxGeometry>
                </mxCell>
                <mxCell id="20" value="1" style="resizable=0;html=1;whiteSpace=wrap;align=right;verticalAlign=bottom;" parent="18" connectable="0" vertex="1">
                    <mxGeometry x="1" relative="1" as="geometry"/>
                </mxCell>
                <mxCell id="27" value="" style="endArrow=none;html=1;rounded=0;" parent="1" source="6" target="5" edge="1">
                    <mxGeometry relative="1" as="geometry">
                        <mxPoint x="250" y="300" as="sourcePoint"/>
                        <mxPoint x="250" y="370" as="targetPoint"/>
                    </mxGeometry>
                </mxCell>
                <mxCell id="28" value="*" style="resizable=0;html=1;whiteSpace=wrap;align=left;verticalAlign=bottom;" parent="27" connectable="0" vertex="1">
                    <mxGeometry x="-1" relative="1" as="geometry"/>
                </mxCell>
                <mxCell id="29" value="*" style="resizable=0;html=1;whiteSpace=wrap;align=right;verticalAlign=bottom;" parent="27" connectable="0" vertex="1">
                    <mxGeometry x="1" relative="1" as="geometry"/>
                </mxCell>
                <mxCell id="30" value="" style="endArrow=none;html=1;rounded=0;" parent="1" source="5" target="8" edge="1">
                    <mxGeometry relative="1" as="geometry">
                        <mxPoint x="570" y="370" as="sourcePoint"/>
                        <mxPoint x="570" y="440" as="targetPoint"/>
                    </mxGeometry>
                </mxCell>
                <mxCell id="31" value="1" style="resizable=0;html=1;whiteSpace=wrap;align=left;verticalAlign=bottom;" parent="30" connectable="0" vertex="1">
                    <mxGeometry x="-1" relative="1" as="geometry"/>
                </mxCell>
                <mxCell id="32" value="1" style="resizable=0;html=1;whiteSpace=wrap;align=right;verticalAlign=bottom;" parent="30" connectable="0" vertex="1">
                    <mxGeometry x="1" relative="1" as="geometry"/>
                </mxCell>
                <mxCell id="34" value="" style="endArrow=none;html=1;rounded=0;" parent="1" source="4" target="8" edge="1">
                    <mxGeometry relative="1" as="geometry">
                        <mxPoint x="523" y="300" as="sourcePoint"/>
                        <mxPoint x="428" y="360" as="targetPoint"/>
                    </mxGeometry>
                </mxCell>
                <mxCell id="35" value="1" style="resizable=0;html=1;whiteSpace=wrap;align=left;verticalAlign=bottom;" parent="34" connectable="0" vertex="1">
                    <mxGeometry x="-1" relative="1" as="geometry"/>
                </mxCell>
                <mxCell id="36" value="*" style="resizable=0;html=1;whiteSpace=wrap;align=right;verticalAlign=bottom;" parent="34" connectable="0" vertex="1">
                    <mxGeometry x="1" relative="1" as="geometry"/>
                </mxCell>
                <mxCell id="37" value="" style="endArrow=none;html=1;rounded=0;" parent="1" source="2" target="8" edge="1">
                    <mxGeometry relative="1" as="geometry">
                        <mxPoint x="510" y="450" as="sourcePoint"/>
                        <mxPoint x="470" y="420" as="targetPoint"/>
                    </mxGeometry>
                </mxCell>
                <mxCell id="38" value="1" style="resizable=0;html=1;whiteSpace=wrap;align=left;verticalAlign=bottom;" parent="37" connectable="0" vertex="1">
                    <mxGeometry x="-1" relative="1" as="geometry"/>
                </mxCell>
                <mxCell id="39" value="*" style="resizable=0;html=1;whiteSpace=wrap;align=right;verticalAlign=bottom;" parent="37" connectable="0" vertex="1">
                    <mxGeometry x="1" relative="1" as="geometry"/>
                </mxCell>
                <mxCell id="42" value="&lt;font style=&quot;color: rgb(255, 0, 0);&quot;&gt;&lt;span style=&quot;white-space: pre;&quot;&gt;&#x9;&lt;/span&gt;Redisに保存&lt;/font&gt;" style="rounded=1;whiteSpace=wrap;html=1;strokeColor=#FF0000;fillColor=none;align=left;verticalAlign=top;" parent="1" vertex="1">
                    <mxGeometry x="255" y="90" width="160" height="100" as="geometry"/>
                </mxCell>
                <mxCell id="45" value="" style="endArrow=none;html=1;rounded=0;entryX=0;entryY=0.5;entryDx=0;entryDy=0;" edge="1" parent="1" source="2" target="6">
                    <mxGeometry relative="1" as="geometry">
                        <mxPoint x="500" y="270" as="sourcePoint"/>
                        <mxPoint x="560" y="270" as="targetPoint"/>
                    </mxGeometry>
                </mxCell>
                <mxCell id="46" value="1" style="resizable=0;html=1;whiteSpace=wrap;align=left;verticalAlign=bottom;" connectable="0" vertex="1" parent="45">
                    <mxGeometry x="-1" relative="1" as="geometry"/>
                </mxCell>
                <mxCell id="47" value="*" style="resizable=0;html=1;whiteSpace=wrap;align=right;verticalAlign=bottom;" connectable="0" vertex="1" parent="45">
                    <mxGeometry x="1" relative="1" as="geometry"/>
                </mxCell>
            </root>
        </mxGraphModel>
    </diagram>
</mxfile>